<?xml version="1.0" standalone="no"?>
<!DOCTYPE svg PUBLIC "-//W3C//DTD SVG 20010904//EN"
 "http://www.w3.org/TR/2001/REC-SVG-20010904/DTD/svg10.dtd">
<svg version="1.0" xmlns="http://www.w3.org/2000/svg"
 width="269.000000pt" height="187.000000pt" viewBox="0 0 269.000000 187.000000"
 preserveAspectRatio="xMidYMid meet">

<g transform="translate(0.000000,187.000000) scale(0.100000,-0.100000)"
fill="#000000" stroke="none">
<path d="M940 1730 c-65 -12 -175 -57 -172 -71 2 -6 -3 -9 -11 -6 -8 3 -34 -1
-58 -9 -30 -10 -34 -13 -14 -10 17 3 38 8 48 11 12 5 17 2 17 -10 0 -12 -6
-15 -22 -10 -18 5 -20 4 -8 -4 19 -14 50 -14 50 0 0 5 4 8 9 4 5 -3 12 3 14
12 4 15 5 15 6 2 0 -9 12 -19 26 -21 13 -3 22 -1 19 3 -3 5 0 9 7 9 10 0 10 3
1 12 -19 19 -14 33 6 15 10 -10 27 -17 37 -17 23 0 8 -16 -20 -22 -16 -3 -14
-5 9 -10 22 -4 30 -2 33 13 3 11 10 19 15 19 5 0 6 -4 3 -10 -3 -5 -1 -10 5
-10 6 0 9 -4 6 -9 -5 -7 36 -26 104 -47 13 -5 13 -6 0 -14 -9 -6 -10 -10 -3
-10 17 0 27 20 30 60 2 25 0 31 -7 20 -5 -8 -10 -10 -10 -5 0 6 4 16 9 23 7
11 9 11 14 -2 4 -9 11 -16 17 -16 7 0 7 6 0 21 -7 11 -10 23 -7 25 8 8 65 -85
72 -116 5 -21 18 -34 51 -50 24 -12 44 -26 44 -31 0 -5 6 -9 13 -9 8 0 32 -17
55 -38 30 -28 42 -34 43 -23 5 63 -8 161 -22 161 -5 0 -6 -13 -4 -30 3 -16 7
-44 10 -62 3 -20 2 -29 -4 -23 -12 13 -33 143 -26 155 4 6 -2 10 -12 11 -11 0
-13 3 -5 6 10 4 9 9 -5 19 -17 13 -17 14 2 8 11 -4 -2 10 -29 30 -27 20 -53
37 -58 37 -4 1 -11 2 -15 3 -81 20 -199 27 -263 16z m-116 -58 c3 -5 -1 -9 -9
-9 -8 0 -12 4 -9 9 3 4 7 8 9 8 2 0 6 -4 9 -8z m120 -5 c3 3 6 1 6 -6 0 -8 -6
-11 -16 -7 -9 3 -20 6 -25 6 -5 0 -9 5 -9 10 0 7 6 7 19 1 10 -6 21 -7 25 -4z
m108 -29 c-6 -6 -7 0 -4 19 5 21 7 23 10 9 2 -10 0 -22 -6 -28z m-20 -24 c6
-13 9 -26 6 -29 -10 -10 -39 8 -34 21 3 7 -2 18 -10 24 -21 18 -17 32 6 20 12
-6 26 -22 32 -36z m-42 -5 c0 -14 -17 -10 -23 5 -4 10 -1 13 9 9 7 -3 14 -9
14 -14z m267 -61 c-3 -8 -6 -5 -6 6 -1 11 2 17 5 13 3 -3 4 -12 1 -19z m-12
-38 c3 -5 1 -10 -4 -10 -6 0 -11 5 -11 10 0 6 2 10 4 10 3 0 8 -4 11 -10z"/>
<path d="M780 1610 c-13 -8 -12 -10 3 -10 9 0 17 5 17 10 0 12 -1 12 -20 0z"/>
<path d="M719 1596 c8 -9 31 -25 50 -34 20 -9 39 -18 44 -20 4 -2 7 1 7 7 0 6
-7 11 -15 11 -8 0 -15 4 -15 10 0 5 7 7 15 4 9 -4 15 0 15 10 0 12 -5 14 -24
6 -13 -4 -27 -5 -32 0 -5 4 -20 11 -34 15 -23 7 -24 6 -11 -9z"/>
<path d="M1086 1565 c-3 -8 -1 -15 4 -15 6 0 10 7 10 15 0 8 -2 15 -4 15 -2 0
-6 -7 -10 -15z"/>
<path d="M1110 1569 c0 -9 6 -22 14 -28 11 -9 15 -8 20 5 4 9 4 19 1 22 -3 3
-5 -1 -5 -8 0 -9 -5 -7 -15 6 -12 16 -14 16 -15 3z"/>
<path d="M826 1543 c-5 -13 76 -63 101 -63 8 0 37 -11 65 -25 60 -30 58 -30
59 -2 1 14 3 16 6 6 2 -9 15 -21 29 -28 31 -14 37 -14 29 -1 -3 6 -2 10 4 10
5 0 18 3 28 6 17 6 17 6 -1 -8 -25 -20 -10 -29 57 -32 28 -2 36 -1 17 1 -19 2
-39 9 -45 14 -7 7 -4 8 8 4 22 -9 23 11 1 23 -13 7 -9 11 21 16 20 4 35 10 32
12 -11 11 -165 14 -191 4 -25 -9 -27 -12 -15 -28 13 -15 12 -16 -4 -3 -12 10
-15 17 -7 25 5 5 10 17 10 25 0 11 -5 9 -16 -7 -8 -12 -20 -22 -26 -22 -6 0
-3 10 8 21 14 16 15 23 7 26 -7 3 -13 12 -13 21 -1 15 -2 15 -14 0 -14 -18
-32 -25 -21 -9 3 6 -20 9 -56 7 -52 -2 -59 -1 -44 10 16 12 16 13 -4 11 -11
-1 -23 -7 -25 -14z m64 -23 c0 -5 -5 -10 -11 -10 -5 0 -7 5 -4 10 3 6 8 10 11
10 2 0 4 -4 4 -10z m25 0 c3 -5 1 -10 -4 -10 -6 0 -11 5 -11 10 0 6 2 10 4 10
3 0 8 -4 11 -10z m30 -10 c-3 -5 0 -12 6 -16 7 -4 9 -3 6 3 -4 6 2 13 13 16
28 7 35 -9 7 -18 -12 -4 -26 -6 -32 -5 -5 1 -15 3 -22 3 -8 0 -8 5 0 18 6 10
15 15 19 13 5 -3 6 -9 3 -14z"/>
<path d="M1465 1450 c3 -5 1 -10 -5 -10 -6 0 -9 -4 -6 -9 4 -5 -5 -32 -19 -59
-14 -27 -25 -54 -25 -58 0 -5 -65 -10 -145 -11 -81 0 -168 -7 -196 -14 -38
-10 -52 -10 -58 -1 -17 28 -160 -77 -177 -131 -4 -12 -14 -27 -23 -34 -15 -11
-14 -12 2 -13 9 0 17 -6 17 -14 0 -9 -7 -12 -20 -9 -20 5 -25 -4 -21 -36 2 -7
-2 -10 -8 -6 -14 8 -14 3 -1 -30 5 -14 14 -24 18 -21 5 3 9 -13 10 -34 2 -28
-2 -42 -15 -50 -13 -8 -14 -13 -5 -16 6 -3 12 -17 12 -31 0 -21 -2 -24 -15
-13 -20 17 -19 57 3 69 10 6 12 11 4 11 -8 0 -10 8 -6 24 3 15 0 33 -8 45 -13
19 -14 15 -10 -36 3 -37 1 -54 -6 -50 -7 5 -7 -7 0 -36 5 -23 8 -54 6 -69 -3
-16 0 -24 5 -21 6 4 8 -5 5 -21 -3 -14 1 -34 8 -43 7 -10 14 -23 14 -30 0 -6
5 -24 12 -40 6 -15 11 -31 10 -34 -1 -4 10 -19 23 -33 13 -14 27 -43 31 -63 4
-21 12 -42 18 -49 6 -6 20 -23 31 -38 11 -16 25 -34 32 -41 7 -7 9 -15 6 -19
-4 -3 2 -13 13 -22 10 -8 12 -13 4 -9 -8 4 8 -15 35 -41 28 -26 49 -52 47 -57
-1 -4 2 -6 7 -3 13 8 42 -4 35 -15 -3 -5 8 -12 25 -15 17 -4 28 -10 26 -14 -8
-12 96 -16 293 -10 115 3 167 8 148 13 l-29 8 49 26 c74 39 128 89 188 172 78
110 111 176 136 274 37 150 16 344 -51 463 -18 30 -41 60 -53 64 -13 6 -15 9
-6 10 18 1 -67 43 -129 65 -28 9 -82 15 -145 15 -56 0 -107 4 -114 9 -19 12
-5 55 30 93 30 32 31 58 3 58 -9 0 -13 -4 -10 -10z m-609 -288 c-17 -16 -18
-16 -5 5 7 12 15 20 18 17 3 -2 -3 -12 -13 -22z m180 -14 c-6 10 -1 11 21 5
15 -4 39 -7 52 -6 13 1 31 -6 39 -14 8 -8 26 -13 38 -10 17 3 23 0 22 -12 -3
-38 3 -61 15 -58 8 1 11 -9 10 -28 -3 -57 -3 -80 -3 -124 0 -44 -5 -59 -16
-49 -7 8 -7 112 1 140 5 18 4 20 -4 8 -6 -8 -11 -25 -11 -37 0 -13 -9 -32 -21
-44 -13 -13 -18 -27 -14 -42 5 -17 4 -18 -4 -8 -8 12 -11 10 -16 -11 -4 -15
-20 -31 -41 -42 -19 -9 -33 -20 -30 -25 6 -9 -43 -55 -50 -48 -3 2 2 10 11 17
8 7 15 17 15 23 0 6 -3 7 -6 4 -4 -3 -15 5 -26 18 -11 14 -25 25 -33 25 -7 0
-16 12 -20 28 -7 27 -7 27 -16 5 -24 -63 -34 7 -14 98 7 30 -3 37 -23 17 -16
-16 -15 -7 4 31 9 18 14 41 11 52 -3 10 -1 17 4 13 5 -3 9 3 10 13 0 16 1 16
8 -2 7 -17 9 -16 15 13 5 22 13 32 27 32 11 0 19 7 19 16 0 14 2 15 17 3 12
-10 15 -11 9 -1z m-166 -107 c0 -6 -4 -13 -10 -16 -5 -3 -10 1 -10 9 0 9 5 16
10 16 6 0 10 -4 10 -9z m413 -70 c-12 -8 -14 -53 -2 -46 5 4 9 -10 9 -29 0
-19 -4 -38 -10 -41 -5 -3 -10 -15 -10 -26 0 -11 -4 -18 -9 -15 -10 7 -2 56 10
56 5 0 9 9 9 20 0 11 -5 20 -11 20 -5 0 -7 -4 -4 -10 3 -5 2 -10 -3 -10 -12 0
-3 84 9 88 5 2 10 11 10 20 1 14 2 13 6 -2 3 -10 1 -21 -4 -25z m-456 -33 c-3
-7 -5 -2 -5 12 0 14 2 19 5 13 2 -7 2 -19 0 -25z m40 0 c-3 -8 -6 -5 -6 6 -1
11 2 17 5 13 3 -3 4 -12 1 -19z m23 -13 c0 -8 -4 -15 -10 -15 -5 0 -7 7 -4 15
4 8 8 15 10 15 2 0 4 -7 4 -15z m475 -65 c3 -5 1 -10 -4 -10 -6 0 -11 5 -11
10 0 6 2 10 4 10 3 0 8 -4 11 -10z m-185 -16 c0 -8 -19 -13 -24 -6 -3 5 1 9 9
9 8 0 15 -2 15 -3z m176 -69 c4 -65 18 -97 40 -88 12 4 14 0 8 -23 -9 -40 -24
-54 -24 -22 0 17 -7 27 -19 31 -17 4 -20 14 -20 69 0 35 -1 68 -2 74 -3 17 1
27 8 21 3 -4 8 -32 9 -62z m54 42 c0 -13 -5 -28 -12 -35 -6 -6 -11 -25 -10
-42 0 -16 -4 -30 -10 -30 -7 0 -8 15 -3 43 4 23 8 52 8 65 2 29 27 29 27 -1z
m-623 -19 c-3 -7 -5 -2 -5 12 0 14 2 19 5 13 2 -7 2 -19 0 -25z m443 1 c0 -17
-4 -28 -10 -24 -5 3 -10 17 -10 31 0 13 5 24 10 24 6 0 10 -14 10 -31z m-260
17 c0 -3 -4 -8 -10 -11 -5 -3 -10 -1 -10 4 0 6 5 11 10 11 6 0 10 -2 10 -4z
m27 -20 c-3 -8 -1 -17 6 -19 7 -2 9 -8 4 -12 -11 -13 -31 11 -24 29 4 9 9 16
13 16 3 0 4 -6 1 -14z m173 -48 c0 -24 -17 -23 -25 2 -8 26 4 48 16 29 5 -8 9
-22 9 -31z m144 -61 c-4 -14 -9 -16 -17 -8 -7 7 -14 5 -23 -7 -12 -15 -13 -13
-14 15 0 22 6 36 20 43 12 6 20 22 21 38 1 19 4 13 10 -18 5 -25 6 -53 3 -63z
m-513 46 c-9 -15 -10 -12 -10 17 0 29 1 32 10 18 7 -12 7 -24 0 -35z m179 23
c0 -3 -4 -8 -10 -11 -5 -3 -10 -1 -10 4 0 6 5 11 10 11 6 0 10 -2 10 -4z m241
-21 c5 4 9 -12 9 -34 0 -23 -4 -41 -9 -41 -11 0 -21 37 -20 75 1 17 3 22 6 12
2 -9 9 -15 14 -12z m-341 -5 c0 -5 -2 -10 -4 -10 -3 0 -8 5 -11 10 -3 6 -1 10
4 10 6 0 11 -4 11 -10z m257 -27 c-3 -10 -5 -4 -5 12 0 17 2 24 5 18 2 -7 2
-21 0 -30z m-47 -4 c0 -6 -24 -19 -36 -19 -2 0 -4 6 -4 14 0 9 9 14 20 13 11
-1 20 -4 20 -8z m24 -44 c-4 -8 -10 -15 -14 -15 -4 0 -10 7 -14 15 -4 10 1 15
14 15 13 0 18 -5 14 -15z m-234 -15 c0 -5 -4 -10 -10 -10 -5 0 -10 5 -10 10 0
6 5 10 10 10 6 0 10 -4 10 -10z m307 -22 c-3 -7 -5 -2 -5 12 0 14 2 19 5 13 2
-7 2 -19 0 -25z m138 22 c3 -5 1 -10 -4 -10 -6 0 -11 5 -11 10 0 6 2 10 4 10
3 0 8 -4 11 -10z m-195 -55 c-7 -9 -15 -13 -19 -10 -3 3 1 10 9 15 21 14 24
12 10 -5z m-107 -259 c4 -10 1 -13 -9 -9 -15 6 -19 23 -5 23 5 0 11 -7 14 -14z"/>
<path d="M1111 844 c0 -11 3 -14 6 -6 3 7 2 16 -1 19 -3 4 -6 -2 -5 -13z"/>
<path d="M1070 835 c0 -9 5 -15 11 -13 6 2 11 8 11 13 0 5 -5 11 -11 13 -6 2
-11 -4 -11 -13z"/>
<path d="M1206 1435 c5 -11 11 -12 24 -5 13 7 20 6 22 -1 2 -7 13 -9 27 -4 32
10 8 25 -41 25 -29 0 -36 -3 -32 -15z"/>
<path d="M1170 1320 c0 -9 148 -3 159 6 2 2 -32 4 -77 4 -47 0 -82 -4 -82 -10z"/>
<path d="M1358 1313 c7 -3 16 -2 19 1 4 3 -2 6 -13 5 -11 0 -14 -3 -6 -6z"/>
</g>
</svg>
